<svg width="40" height="41" viewBox="0 0 40 41" fill="none" xmlns="http://www.w3.org/2000/svg">
<rect y="0.5" width="40" height="40" rx="20" fill="#BFACAF"/>
<path d="M16.36 14.1H17.805V26H16.36V14.1ZM17.159 15.46V14.1H19.59C20.3607 14.1 21.0463 14.2473 21.647 14.542C22.259 14.8253 22.7407 15.2333 23.092 15.766C23.4547 16.2987 23.636 16.9333 23.636 17.67C23.636 18.3953 23.4547 19.03 23.092 19.574C22.7407 20.1067 22.259 20.5203 21.647 20.815C21.0463 21.0983 20.3607 21.24 19.59 21.24H17.159V19.88H19.59C20.3607 19.88 20.984 19.693 21.46 19.319C21.9473 18.945 22.191 18.3953 22.191 17.67C22.191 16.9333 21.9473 16.3837 21.46 16.021C20.984 15.647 20.3607 15.46 19.59 15.46H17.159Z" fill="white"/>
</svg>
